<?xml version="1.0" encoding="utf-8"?>
<!-- Generator: Adobe Illustrator 21.1.0, SVG Export Plug-In . SVG Version: 6.00 Build 0)  -->
<svg version="1.1" id="Layer_1" xmlns="http://www.w3.org/2000/svg" xmlns:xlink="http://www.w3.org/1999/xlink" x="0px" y="0px"
	 viewBox="0 0 190 190" style="enable-background:new 0 0 190 190;" xml:space="preserve">
<style type="text/css">
	.st0{fill-rule:evenodd;clip-rule:evenodd;fill:#AEB0B2;}
	.st1{fill-rule:evenodd;clip-rule:evenodd;fill:#FFFFFF;}
	.st2{fill:#FFF200;}
	.st3{fill-rule:evenodd;clip-rule:evenodd;}
	.st4{fill:#FFFFFF;}
</style>
<path class="st0" d="M109.5,148.1L109.5,148.1L109.5,148.1l2.9-0.8l0,0l0,0c-0.1,0-0.1,0.1-0.2,0.1c0.3-0.1,0.5-0.2,0.8-0.3
	c3.5-1.5,6.6-3.4,9.4-6.2c2.3-2.4,3.3-5.1,3.8-8.2c0.5-3.1,1.9-4.4,4.4-4.3c1.6,0,3.3-0.2,4.9-0.1l8.5,0.4
	c18.5-19.6,19.1-46.9,8.5-70.1c-10.6-23.2-37.5-48.6-64.9-41c-35.9,10-59.1,36.7-53.9,72.8c4.1,28.3,10.3,37.2,18.7,42l7.1-0.4
	c1.3,0.3,2.8,0.1,4.1,0.3c0.8,0.1,1.6,0.6,2.4,1c0.5,0.3,0.9,0.8,1.4,1c1,0.4,1.7,1,2,2.1c0.2,0.7,0.7,1.5,1.2,1.9
	c4.1,3.2,8.8,5,13.7,6.7c1.4,0.5,2.7,1.3,4.1,1.5c0.5,0.1,0.9,0.2,1.4,0.2l2.3,0.4c2.7,0.4,5.3,0.7,8,1c1.5,0.2,3-0.1,4.5,0.1
	C106.4,148.4,108,148.4,109.5,148.1L109.5,148.1z"/>
<path class="st1" d="M84.1,60.3c-14.8,1.4-13.9-1.4-18.5-2.2c-0.3-0.6-0.7-1.2-1.5-1c0-1.1,0.3-2.2,1-3.2c5.1-0.4,2.8-3.8,4.1-4.4
	c3-1.5,2.6-2.3,2.2-4.3c-0.6-3-3.6-0.6-1.9-6.1c1.7-0.1,2.8,6.2,19.6,3.9c1.3-0.2,23.5-4.2,24.2-4.4c8.7-2.5,4-2.1,9,6.2
	c6.4,10.7-2.9,6.6-15.1,12.7C103.4,59.2,88.1,59.9,84.1,60.3"/>
<path class="st1" d="M93.4,144.8c0.4,0.2,0.7,0.4,1.1,0.6c0.9-0.4,4.8,2.5,10.3-3.1c0.5,0.6,1.1,0.8,1.8,1.2
	c0.3,0.2,2.6,3.6,2.9,4.7l0,0c-1.5,0.3-3.1,0.3-4.7,0.1c-1.5-0.2-3,0.1-4.5-0.1c-2.7-0.3-5.4-0.6-8-1
	C92.4,146.3,92.7,145.6,93.4,144.8"/>
<path class="st1" d="M99.1,90.1c0-0.2-0.1-0.6-0.1-0.9c-4.2-2.2,1.4-8.8,3.7-7c0.5-0.5,5.5-0.5,5.9,2.2c0.5,2.8-0.6,6.7-2.6,7.2
	C100,92.9,100.6,91.2,99.1,90.1"/>
<path class="st1" d="M73.4,93.2c-1.5,0.1-4.5-2-4.8-3.5c-0.3-1.8,0.6-4.1,1.1-4.5C81.5,77.8,81.5,91.5,73.4,93.2"/>
<path class="st1" d="M68.1,44.9c1.3,0.6,1.5,0.9,1.5,2c-0.7,0.3-1.3,0.9-2.1,0.8C67.1,46.6,68,45.9,68.1,44.9"/>
<path class="st1" d="M66.1,51.6C65.5,49.1,68,51.3,66.1,51.6"/>
<path class="st2" d="M112.6,128.4c-5.3,3.6-8.4,3.5-9.1,4.1c-1.9,1.4,1.5,6.2-1.6,8c0.1,0.2,0.1,0.4,0.2,0.6c-0.2,0.3-2.8,1-3.7,1.3
	c-2.9,0.8-2.1,0.9-5-0.4c-0.1-0.8-0.1-3.1-0.5-3.7c0.3-0.5-0.3-4.2-2.1-5.5c-0.9,0.4-1.8,0.1-2.7-0.2c-4.7-1.4-4.2,1.3-10.9-2.3
	c-4.3-2.4-5.9-0.5-10.8-5.7c-0.8-0.8-7.8-9.6-7.2-10.6c-0.5-0.7-0.6-1.7-1.5-2.1c-3-1.3-1.7,0.9-4.6,2c-5,1.9-10.6-7.6-10.5-10.4
	c0.1-2.5-0.1-8.1,3.3-8.6c2.1-0.3,2.4-0.2,3.7,1.2c-0.6,0.5-0.2,1,0.1,1.5c-2.6,1.4-5.1,3.6-5.2,6.9c0,1.4,2.3,2.7,3-1.3
	c0.9,1.4,1.1,3.7,3.2,3.7c0.7,0,1,0.5,1.7,0c0,0.4,0,0.7,0.1,1c0.6,0.4,1.2,0.9,1.4,1.6c0.3,0,0.6-0.1,0.8,0
	c3.4,0.9,8.4-5.8,10.9-5.7c0.4-0.5,0.9-1,1.2-1.6c0.7-1.1-9.6-8.3-7.2-15.1c0.6-1.6,0.6-4,0.9-5.7c0.5,0.4,0.6,1.7,0.9,2.5
	c1.3,3.6,2.6,0.9,5.7-0.1c-0.2,0.9-0.3,1.8-1.2,2.4c0.6,1.8-0.8,3.2,1,5.8c1.6,2.4,7.5,4.5,8.5,2.7c0.1-0.2,2.3-0.7,2.4-1.1
	c0.3-1,1.3-1.4,1.8-2.1c0.1,0,0.1,0,0.2,0c0.8,4.1,0.7,8.9,1.1,13c0.1,0.6,1.1,1.6,1.4,3c0.2,1.2,9.3-0.3,10.7-0.3
	c1.8,0,1.8-2.4,0.1-2.9c-0.5-0.1-10.8,1.5-9.6-0.6c0.2-0.4-2.3-18.8-2.7-21.1c1.2-0.1,6.2-1.1,7.1-0.5c0.4,0.3,4.9-1,6-1
	c2.1-0.2,1.6,0.2,3,0.1c0.1,0.9-3.5,3.7-2,7.5c1.7,4.3,4.7,5.4,8.9,5.4c3.4,0,4.8-1.2,7.4-6.1c1.1-2,0.1-4.2-0.7-6
	c2.9,0.4,2.7,0.6,4.2-1.3c0.5,1.9,2.2,19.3,2.1,20.3c-0.6,3.9,6.9,1.9,9,1.7c3.9-0.4,1.8-3.6,1.9-5.7c1.2-0.1,2.3-0.1,3.5-0.2
	c0,0.1,0,0.4,0,0.5c-3,9.6,0.7,5.3-5.7,17.4c-0.7,1.4-1.2,0.5-1.9,2.8C123.2,119.5,115.2,126.7,112.6,128.4"/>
<path class="st2" d="M127.3,94.7c-0.4-2.2-4.4-17.6,6.1-15.9c6.8,1.1,6.1,9.8,6.3,10.9C140.9,94.6,130.2,93.9,127.3,94.7"/>
<path class="st2" d="M113.9,76c-2.3-3.9-42.6,1.4-48.2,1.7c-0.2,0.3-3.6,0.9-4.4,1.2c0.6-2.2,0.1-2.7,2.5-2.8c1-1.1,4.6-0.1,5.6-1
	c1.6-1.4,11.6,0.3,12.8-0.9c0.1,0.1,0.2,0.2,0.4,0.4c0.1-0.2,0.2-0.3,0.3-0.5c0.3,0.4,4.1,0.1,4.6,0.1c4,0.1,17.9-1.4,19.9-0.9
	c1.1,0.3,3.1-0.5,5.8-0.3C113.6,73.8,113.4,75,113.9,76"/>
<path d="M122.6,68c-0.2-0.1-0.5-0.1-0.7-0.2c0,0,0-0.1,0-0.1c0.2,0,0.5,0.1,0.7,0.1C122.6,67.9,122.6,67.9,122.6,68"/>
<path class="st3" d="M102.3,49.3c3.6-0.8,3.5-1.2,3.5-4.8c0-1.6-3.1-1.6-4.1-1.1c-2,1-3.7,0.9-2.4,3.5c1.8,3.6,1.6,6.8,3,6.4
	C103.9,52.8,102.3,50.4,102.3,49.3 M103.6,45.2c0.2,0.7,0.2,1.2-0.1,1.7c-1.3,0.2-0.9-0.4-2.2,0.4c-0.1-0.4-0.2-0.8-0.2-1.2
	C101.9,45.7,102.6,45.1,103.6,45.2z M74.3,46c-1.3,0.4-2.2,1.7-2.9,2.6c-2,2.5-3.6,7.7-1.1,7.6c1.6-0.1,1-2.3,1-3.4
	c0.7,0.1,1.3,0.2,2,0.3c-0.2,3.4,1.4,2.9,1.6,2.4c1.1-2.7-0.7-6.3,0.5-8.2C75.1,46.8,74.7,46.3,74.3,46z M72.7,50.6
	c0.1-0.3,0.1-0.5,0.2-0.8C73.6,49.9,73.4,50.9,72.7,50.6z M111.8,46.1c-1.1-1.4-2.4-4.7-3.6-4.6c-2.2,0.1-1,5.2-1.5,6.6
	c-0.3,0.8,0.4,1.6,0.4,2.6c0,1.5,2.4,2.4,2.1,1c-0.4-2-0.8-2.8,1.5-3.1c0.3,0.7,0.5,1.3,0.8,1.9c1.3,0.1,3.2,1.1,1.3-2.5
	C113.6,47.1,113.2,45.9,111.8,46.1z M109.6,46.9c-0.3,0-0.5,0.1-0.7,0.1c-0.1-0.4-0.1-0.8-0.2-1.2C109.2,45.7,109.3,45.8,109.6,46.9
	z M77.9,45.4c-0.8,1.3-0.9,3.2-0.7,4.6c0.2,1.4-1.8,7.4,2,4.6c0-0.7-0.4-1.5-0.1-2.3c0.7,0.1,1.4,0.1,2.2,0.2
	c-0.1,3.2-0.9,4.4,1,5.3c0.3-0.3,0.6-0.5,0.7-0.8c0.3-0.9,0.2-5.2,0.2-6.4c0-1.6,0.8-4.2-0.4-4.6c-2-0.7-1.5,3.4-1.5,4.4
	c-0.5-0.1-1-0.1-1.5-0.2C77.6,50,80.7,45.4,77.9,45.4z M117.5,46.4c1.8,0.2,2.5,2.2,4.2,1.2c1.8-1.2-1.8-2.7-2.4-3
	c-0.1-2.5,0.1-7.1-3.8-5.9c-1.6,0.5-2.3,2.1-2.6,3.6c2.3,1.7,2.7,4.5,2.8,7.2c0.9,0.6,1.5,1.1,2.2,0
	C118.7,48.3,117.6,47.6,117.5,46.4z M116.7,43.7c-0.7-0.4-1.6-2.8-0.4-3.1C117.7,40.2,117.4,43.1,116.7,43.7z M92.7,55.4l1.8-0.9
	c4.5-2.4,3.5-5.9,2.8-6.7c-0.9-1,2-2.7-0.5-3.8c-1.3-0.6-2.5,1.8-3.3,2.6c-0.4-0.6-0.4-1.1-0.6-1.7c-0.4-1.9-3.6-1-2.4,1.6
	c-0.6-0.1-1,0-1.2,0.6c-1.1-0.7-1.4-2.1-2.2-1.8c-1.2,0.4-1.3,0.6-1.3,1.8c0,0.8-1.6,3.4-1,4.4c1.4,2.5,2.8,3.3,5.4,4.1
	c-0.2,0.8,0.1,1.4,0.4,2c0.5,0,1,0,1.5,0.1C92.9,57.8,93.3,56.1,92.7,55.4z M89.6,51.4c-0.7-1.3,0.7-2.1,1.7-2.7
	c2-1.1,5.2,4.4,0.2,3.8c1-0.8,1.8-1.5,0.7-2.6C91,48.6,90,50.6,89.6,51.4z M90.4,52.2c-0.5,0-0.5,0-0.8-0.7c0.4,0.2,0.6,0.4,0.9,0.5
	C90.5,52.1,90.5,52.2,90.4,52.2z M112.6,128.4c-5.3,3.6-8.4,3.5-9.1,4.1c-1.9,1.4,1.5,6.2-1.6,8c0.1,0.2,0.1,0.4,0.2,0.6
	c-0.2,0.3-2.8,1-3.7,1.3c-2.9,0.8-2.1,0.9-5-0.4c-0.1-0.8-0.1-3.1-0.5-3.7c0.3-0.5-0.3-4.2-2.1-5.5c-0.9,0.4-1.8,0.1-2.7-0.2
	c-4.7-1.4-4.2,1.3-10.9-2.3c-4.3-2.4-5.9-0.5-10.8-5.7c-0.8-0.8-7.8-9.6-7.2-10.6c-0.5-0.7-0.6-1.7-1.5-2.1c-3-1.3-1.7,0.9-4.6,2
	c-5,1.9-10.6-7.6-10.5-10.4c0.1-2.5-0.1-8.1,3.3-8.6c2.1-0.3,2.4-0.2,3.7,1.2c-0.6,0.5-0.2,1,0.1,1.5c-2.6,1.4-5.1,3.6-5.2,6.9
	c0,1.4,2.3,2.7,3-1.3c0.9,1.4,1.1,3.7,3.2,3.7c0.7,0,1,0.5,1.7,0c0,0.4,0,0.7,0.1,1c0.6,0.4,1.2,0.9,1.4,1.6c0.3,0,0.6-0.1,0.8,0
	c3.4,0.9,8.4-5.8,10.9-5.7c0.4-0.5,0.9-1,1.2-1.6c0.7-1.1-9.6-8.3-7.2-15.1c0.6-1.6,0.6-4,0.9-5.7c0.5,0.4,0.6,1.7,0.9,2.5
	c1.3,3.6,2.6,0.9,5.7-0.1c-0.2,0.9-0.3,1.8-1.2,2.4c0.6,1.8-0.8,3.2,1,5.8c1.6,2.4,7.5,4.5,8.5,2.7c0.1-0.2,2.3-0.7,2.4-1.1
	c0.3-1,1.3-1.4,1.8-2.1c0.1,0,0.1,0,0.2,0c0.8,4.1,0.7,8.9,1.1,13c0.1,0.6,1.1,1.6,1.4,3c0.2,1.2,9.3-0.3,10.7-0.3
	c1.8,0,1.8-2.4,0.1-2.9c-0.5-0.1-10.8,1.5-9.6-0.6c0.2-0.4-2.3-18.8-2.7-21.1c1.2-0.1,6.2-1.1,7.1-0.5c0.4,0.3,4.9-1,6-1
	c2.1-0.2,1.6,0.2,3,0.1c0.1,0.9-3.5,3.7-2,7.5c1.7,4.3,4.7,5.4,8.9,5.4c3.4,0,4.8-1.2,7.4-6.1c1.1-2,0.1-4.2-0.7-6
	c2.9,0.4,2.7,0.6,4.2-1.3c0.5,1.9,2.2,19.3,2.1,20.3c-0.6,3.9,6.9,1.9,9,1.7c3.9-0.4,1.8-3.6,1.9-5.7c1.2-0.1,2.3-0.1,3.5-0.2
	c0,0.1,0,0.4,0,0.5c-3,9.6,0.7,5.3-5.7,17.4c-0.7,1.4-1.2,0.5-1.9,2.8C123.2,119.5,115.2,126.7,112.6,128.4z M84.1,60.3
	c-14.8,1.4-13.9-1.4-18.5-2.2c-0.3-0.6-0.7-1.2-1.5-1c0-1.1,0.3-2.2,1-3.2c5.1-0.4,2.8-3.8,4.1-4.4c3-1.5,2.6-2.3,2.2-4.3
	c-0.6-3-3.6-0.6-1.9-6.1c1.7-0.1,2.8,6.2,19.6,3.9c1.3-0.2,23.5-4.2,24.2-4.4c8.7-2.5,4-2.1,9,6.2c6.4,10.7-2.9,6.6-15.1,12.7
	C103.4,59.2,88.1,59.9,84.1,60.3z M127.3,94.7c-0.4-2.2-4.4-17.6,6.1-15.9c6.8,1.1,6.1,9.8,6.3,10.9
	C140.9,94.6,130.2,93.9,127.3,94.7z M112.2,147.4c0.1,0,0.1-0.1,0.2-0.1c-1-1.8-3.3-4.2-4.3-6c-2.4-0.1-3.1-6.6-1.9-6.5
	c2.3,0.2,13.9-8.7,15.3-9.9c0.8-0.7,1.3-1.6,2.1-2.3c0.7-0.6,0.3,0.2,1-0.4c0.5,0.3,5.4,0.3,6.3,0.4c3.8,0.3,1.7-4.7,2.8-7.2
	c2.4,1.5,4.1,3.6,7.4,3.4c3.2-3.8,2.7-2.3,1.7-6.5c-0.2-1-1.2-4-1.8-5c-2.7-4.8-1.5-9.1-1.5-12.4c1-0.7,2.6-1.5,2.8-2.9
	c0.4-2.4,0.8-9.8-3.6-13.3c-2.1-1.7-0.8-2-1.9-4c1.2-1.8-4-4.3,0-5.1c2.7-0.5,5.1-1.9,7.7-2.7c1.2-0.4,6.5-0.9,4.4-3.1
	c-0.6-0.7-3-0.8-5.2-2.9c-1-0.9-6.4-3.7-8.1-4.2c-1.4-0.4-1.3-2.1-5.2-2.2c-0.8,0-0.4-0.9-3.1-1.2c-0.3-1.7-0.5-3.4-0.8-5.1
	l-1.6-3.4c-0.5-1-1.7-4.1-2.3-4.6c-0.8-0.7-2.1-6.8-2.4-6.9c-0.8-0.1-2-1.3-1.7-1.8l-3.5-3.2c-5.9-4.8-18.9-2.2-25.6-1.5l-10.7,3.2
	c-0.1,0.7-8.7,3.5-10.2,6.5c-0.7,1.3-0.8-1-2,5.9c-0.1,0.7-0.3,1.1-0.5,1.4l0,0l-0.9,3.1c0.6,1.2-3,8-3.7,10.2
	c-0.5,1.6,0.7,2.2-0.2,3c-1.8,1.5-5.9,6.9-7.2,7.6c-1.4,0.7-8.7,3.8-6.7,5.7c-0.3,0.3-0.6,0.6-0.9,0.9c0.1,1.2,1,1.3,1.9,1.6
	c0.1,0.1,0.1,0.1,0.1,0.2c-2.3,5.1-2.6,12.6-1.9,16.5c-8.5,1.6-7.4,14.3-1.8,20c3.7,3.8,5.6,6.5,11.8,3.1c0.8,0.4,1,0.7,0.7,1.4
	c0.1,1.5,4.3,6,8.4,9.6c5.8,5.2,10.6,5.4,12.4,7c2.5,2.2,11.5,0.1,12.1,2.6c1.8,7.8,0.4,5.4,0,10.4c-0.5-0.1-0.9-0.2-1.4-0.2
	c-1.4-0.2-2.7-1.1-4.1-1.5c-4.9-1.6-9.6-3.4-13.7-6.7c-0.6-0.5-1.1-1.2-1.2-1.9c-0.3-1.1-1-1.7-2-2.1c-0.5-0.2-0.9-0.7-1.4-1
	c-0.8-0.4-1.6-0.9-2.4-1c-1.4-0.2-2.8,0-4.1-0.3l-7.1,0.4c-8.4-4.8-14.6-13.7-18.7-42c-5.2-36.2,18-62.8,53.9-72.8
	c27.3-7.6,54.2,17.9,64.9,41c10.6,23.2,10,50.5-8.5,70.1l-8.5-0.4c-1.6-0.1-3.3,0.1-4.9,0.1c-2.5,0-3.9,1.2-4.4,4.3
	c-0.5,3.1-1.5,5.8-3.8,8.2c-2.7,2.8-5.9,4.8-9.4,6.2C112.7,147.2,112.5,147.3,112.2,147.4z M111.8,147.5c0.1,0,0.2-0.1,0.3-0.1
	C112,147.5,111.9,147.5,111.8,147.5z M110.7,147.9c0.1,0,0.1,0,0.2,0C110.9,147.8,110.8,147.8,110.7,147.9z M93.4,144.8
	c0.4,0.2,0.7,0.4,1.1,0.6c0.9-0.4,4.8,2.5,10.3-3.1c0.5,0.6,1.1,0.8,1.8,1.2c0.3,0.2,2.6,3.6,2.9,4.7l0,0c-1.5,0.3-3.1,0.3-4.7,0.1
	c-1.5-0.2-3,0.1-4.5-0.1c-2.7-0.3-5.4-0.6-8-1C92.4,146.3,92.7,145.6,93.4,144.8z M113.9,76c-2.3-3.9-42.6,1.4-48.2,1.7
	c-0.2,0.3-3.6,0.9-4.4,1.2c0.6-2.2,0.1-2.7,2.5-2.8c1-1.1,4.6-0.1,5.6-1c1.6-1.4,11.6,0.3,12.8-0.9c0.1,0.1,0.2,0.2,0.4,0.4
	c0.1-0.2,0.2-0.3,0.3-0.5c0.3,0.4,4.1,0.1,4.6,0.1c4,0.1,17.9-1.4,19.9-0.9c1.1,0.3,3.1-0.5,5.8-0.3C113.6,73.8,113.4,75,113.9,76z
	 M99.1,90.1c0-0.2-0.1-0.6-0.1-0.9c-4.2-2.2,1.4-8.8,3.7-7c0.5-0.5,5.5-0.5,5.9,2.2c0.5,2.8-0.6,6.7-2.6,7.2
	C100,92.9,100.6,91.2,99.1,90.1z M73.4,93.2c-1.5,0.1-4.5-2-4.8-3.5c-0.3-1.8,0.6-4.1,1.1-4.5C81.5,77.8,81.5,91.5,73.4,93.2z
	 M68.1,44.9c1.3,0.6,1.5,0.9,1.5,2c-0.7,0.3-1.3,0.9-2.1,0.8C67.1,46.6,68,45.9,68.1,44.9z M66.1,51.6 M71.2,91.3
	c-0.5-0.9-0.8-2-0.8-3c0-0.8,0.7-1.5,1.4-1.8c1.7-0.7,3.6,1.6,3.7,3.2c0.1,0.8-0.3,1.5-1.1,1.9C73.3,92.2,72.3,93.2,71.2,91.3z
	 M105.8,83.6c6.3,1.2-1,11.4-1.7,1.6C104,84.4,104.6,83.7,105.8,83.6z M131.1,88.9c-0.2-0.2-0.2-0.3-0.4-0.4c-1-0.4-1.1-1.4-1.5-2.3
	c-0.3,0.1-0.6,0.2-0.8,0.4c-0.3,0.3-0.7,0.2-1,0c-0.3-0.2-0.5-0.5-0.4-0.9c0.1-0.4,0.1-0.8,0.1-1.2c0-0.4,0-0.9,0.5-1.1
	c0.2-0.8,0.9-1,1.4-1.5c0.5-0.5,1.2-0.7,2-0.8c0.4,0,0.9-0.1,1.3,0.1c0.6,0.3,1.4,0.6,1.7,1.4c0.2,0.4,0.5,0.8,0.7,1.3
	c0.1,0.2,0.2,0.5,0.3,0.8c0.5,1,0.4,2.1,0.2,3.1c-0.2,0.6-0.6,1.2-0.9,1.8c-0.2,0.3-0.3,0.6-0.5,0.9c-0.4,0.7-1.1,1-1.6,1.5
	c-0.1,0.1-0.4,0.1-0.6,0c-0.1,0-0.2-0.2-0.4-0.3c-0.9-0.5-0.9-1.3-0.9-2.2C130.4,89.1,130.9,89.2,131.1,88.9z M88.1,97.3
	c-0.3,0.1-0.5,0.2-0.8,0.3c0,0,0-0.1-0.1-0.1c0.3-0.1,0.5-0.3,0.8-0.4C88.1,97.2,88.1,97.3,88.1,97.3z M77.3,125.5
	c-6.2,0,12.7-12.5,17.3-13.6c6.3-1.5,19.5,2,21.6,7.8c0,0.3-0.1,0.7-0.1,1.1c-0.1,0-0.1,0-0.2,0c-0.6-1-0.8-0.7-2-0.1
	c-5.3-5.3-11.2-7.8-18.6-5.5C91.7,116.4,78.1,125.5,77.3,125.5z M151.8,130.2c17.5-22.4,14.9-58.9,3.7-83.4
	c-11.7-25.6-42.6-43.8-72.8-35.3C42.9,22.6,22.1,58.3,27.9,98.3c2.8,19.2,6.3,29.4,10.8,35.2c-0.8,0.4-1.5,1-2.1,1.7
	c-2.3,2.7-2.1,6.8-2.4,10.2c-0.2,2-0.2,4.1-0.5,6.1c0,0.3-0.2,0.8-0.3,1.1c-0.2,0.6-0.4,1.1-0.5,1.7c-1.4,5.6,1.5,10,7.2,10.9
	c0.5,0.1,1,0.2,1.5,0.3c3.1,0.6,6.4,0.6,9.4-0.3c0,0,0,0.1,0.1,0.1c1.4,2.1,2.8,3.9,5,5.3c0.2,0.1,0.5,0.3,0.7,0.5
	c2.7,3.3,5.8,4.7,9.6,6.3c22.7,10,57.9,2.9,76.1-15.5c0.1,0,0.1-0.1,0.2-0.1c0.3-0.2,0.5-0.4,0.8-0.6c0.9,0.4,1.6,0.6,2.9,0.5
	c4.3-0.3,8.1-2,11.5-4.6c2.4-1.8,3.4-5.3,2.3-8.1c-0.6-1.6-1.3-3.1-2-4.7l-1.7-3.9c0-1.6-0.2-3.2-0.5-4.7c-0.6-2.4-2-4.2-4-5.3
	L151.8,130.2z"/>
<path class="st4" d="M110,157.4L110,157.4c0.2,0.4,0.2,0.7,0.4,0.9c0.8,1.6,0.3,3.7,1.8,5.1c0.9,0.8,1.9,1.5,3,1
	c1.3-0.6,1.7-1.6,1.3-2.9c-0.3-0.7-0.6-1.4-0.9-2.1c-0.4-1-0.9-2-1.4-3.2c0.6,0,0.8,0.1,1.1,0.1c1.4,0.1,2.7-1.2,2.7-2.7
	c0-1.4-1-2.4-2.6-2.1c-1.9,0.4-3.9,1-5.7,1.6c-1.2,0.4-2.4,1.2-3.7,1.5c-1.2,0.3-1.8,1-1.9,1.9c-0.1,0.7,0.3,1.8,0.9,2.1
	c0.6,0.4,1.6,0.2,2.4-0.1C108.2,158.4,109,157.9,110,157.4 M59.8,146.7L59.8,146.7c-1.2,0.1-2.3,0.3-3.4,0.4
	c-2.3,0.1-2.2,0.1-3.1,2.3c-0.4,1.1-0.1,1.6,1,1.6c1.6,0,3.3,0,4.9-0.2c1.3-0.1,1.7,0.3,1.6,1.5c0,0.9,0,1.7,0.1,2.6
	c0,1.3,0.8,1.9,2.2,1.9c1.8,0.1,2.5-0.4,2.5-1.8c0-0.9-0.1-1.7-0.3-2.6c-0.2-1.1,0-1.9,1.3-2c0.6,0,1.3-0.2,1.9-0.4
	c1.2-0.3,1.5-1.4,1.2-2.3c-0.2-0.6-1-1.3-1.7-1.5c-0.9-0.3-2-0.4-2.8-0.1c-1.7,0.8-1.6-0.6-1.9-1.4c-0.4-1-0.6-2-1.1-2.9
	c-0.5-1-1.8-1.2-2.9-0.6c-0.9,0.5-1.2,1.3-0.8,2.3C58.9,144.5,59.3,145.4,59.8,146.7z M93.7,164.8L93.7,164.8
	c-1.2-0.1-2.5-0.2-2.7-1.4c-0.2-0.8,0.1-2,0.7-2.7c1.4-1.8,3.5-1.8,5.6-1.6c0.7,0.1,1.8-0.2,2-0.6c0.3-0.8,0.3-1.9,0-2.7
	c-0.2-0.4-1.3-0.7-2-0.7c-1.5,0.1-3,0.3-4.4,0.8c-1.3,0.4-2.6,1-3.5,1.9c-1,1-1.7,2.4-2.4,3.6c-0.9,1.5-0.8,2.9,0,4.4
	c1,1.9,2.9,2.6,4.8,2.7c2.3,0.1,4.7-0.2,7-0.5c0.8-0.1,2-0.6,2.3-1.2c0.3-0.8,0.1-2.2-0.4-2.9c-0.7-0.9-1.9-1.2-3.1-0.6
	C96.2,163.9,95,164.3,93.7,164.8z M127.6,150L127.6,150c-0.5-0.5-0.9-1.1-1.5-1.3c-0.8-0.3-1.7-0.2-2.6-0.3
	c-0.1,0.9-0.5,1.9-0.2,2.7c0.9,2.3,2.7,3.8,4.8,5.1c1.8,1.1,2.8,0.8,3.6-1.1c0.3-0.7,0.4-1.5,0.4-2.3c0.1-2.1,0.2-4.1,0.3-6.2
	c0.1,0,0.3-0.1,0.4-0.1c1.1,1.3,2.2,2.5,3.2,3.8c0.7,1,2.4,1.3,3.7,0.6c0.7-0.4,1-2.2,0.3-3c-2.3-2.9-4.9-5.5-8.2-7.1
	c-0.8-0.4-2-0.5-2.7-0.1c-0.5,0.3-0.6,1.6-0.7,2.4c-0.1,0.4,0,0.8,0,1.2C128.6,146.2,128.5,148.1,127.6,150z M74.7,156.9L74.7,156.9
	c0.3-0.9,0.6-1.5,0.8-2.1c0.2-0.6,0.3-1.2,0.5-1.8c0.5-1.6-0.3-2.5-1.8-2.7c-1.6-0.2-1.9,1-2.3,2c-0.2,0.6-0.3,1.2-0.5,1.8
	c-0.6,2-1.4,4.1-2,6.1c-0.5,1.8,0.8,3.1,2.6,2.7c0.7-0.2,1.4-0.5,1.9-0.9c1.7-1.3,3.5-2,5.8-2.1c-0.2,0.6-0.3,1.1-0.4,1.6
	c-0.4,1.8-0.8,3.6,0,5.4c0.6,1.4,2.2,1.9,3.4,0.9c1-0.8,1.6-1.9,1.3-3.3c-0.2-1.6-0.2-3.2-0.2-4.9c0-1.2,0.2-2.4,0.4-3.5
	c0.2-1.2-0.3-2.4-1.3-2.5c-1-0.2-2.3-0.6-3.3,0.6C78.4,155.6,76.8,156.4,74.7,156.9z M97.7,173c-0.2,0-0.4,0-0.5,0
	c-4.5,1-9.1-0.2-13.7,0.2c-1.6,0.1-3.4-0.6-5-1.2c-3.1-1.1-6.2-2.2-9.2-3.5c-2.6-1.2-5.4-2.2-7.3-4.6c-0.6-0.7-1.4-1.3-2.2-1.8
	c-1.3-0.9-2.2-2.1-3.1-3.4c-1.5-2.4-3.2-4.6-4.7-7c-1.7-2.5-3.3-5-5-7.5c-0.8-1.2-1.9-2.3-2.7-3.6c-0.8-1.2-1.4-2.6-1.9-3.9
	c-0.1-0.3,0.4-1.1,0.7-1.1c3.8-0.2,7.7-0.4,11.5-0.3c2.7,0.1,5.5,1.1,8.2,1.1c2.3,0,3.4,1,4.3,2.7c1.3,2.6,3.7,4.1,6.1,5.2
	c3.5,1.7,7.2,3,10.8,4.4c1.6,0.7,3.3,1.4,5,1.9c4.7,1.3,9.6,1.5,14.4,1.4c1.7-0.1,3.4-0.1,5.1,0c3.6,0.2,6.7-1.2,9.8-2.8
	c2.8-1.4,4.9-3.8,7.3-5.8c2.7-2.3,3.4-5.3,4.4-8.3c0.2-0.6,0.4-1.1,0.6-1.7c0.3-1,1-1.1,2-1.1c2.9,0.1,5.8-0.2,8.6-0.2
	c2.5,0,5,0.1,7.5,0.2c0.8,0,1.3,0.4,1.5,1.3c0.7,2.8,0.5,5.6-1.1,8c-0.8,1.3-2,2.3-3,3.5c-1.8,2.3-3.5,4.7-5.4,6.9
	c-0.6,0.7-1.5,1.2-2.2,1.8c-4,4.1-9,6.4-14.2,8.6c-2.4,1-4.7,2.6-6.9,4.1c-1.9,1.3-3.7,2.5-6,3c-0.9,0.2-1.6,0.9-2.5,1.1
	c-2.9,0.6-5.8,1.1-8.7,1.7c-0.8,0.2-1.7,0.3-2.5,0.5C97.7,173.1,97.7,173.1,97.7,173z"/>
<path class="st0" d="M40.8,142.7c3.2,4.6,6.1,8.9,9.1,13.2c-2.1,0.7-4.4,0.7-6.8,0.2c-0.6-0.1-1.2-0.3-1.7-0.4
	c-2-0.3-2.6-1.2-2.1-3.3c0.3-1.1,0.8-2.2,1-3.4C40.5,147.1,40.6,145.1,40.8,142.7"/>
<path class="st0" d="M152.6,143.5c0.7,1.6,1.3,3.1,1.9,4.5c0.1,0.2-0.1,0.7-0.2,0.9c-2.4,1.8-5,3.2-8.1,3.4c-0.1,0-0.2-0.1-0.7-0.3
	C147.9,149.2,150.2,146.5,152.6,143.5"/>
<path d="M74.7,156.9c2.1-0.4,3.8-1.3,4.9-2.7c1-1.2,2.3-0.8,3.3-0.6c1,0.2,1.5,1.3,1.3,2.5c-0.2,1.2-0.4,2.3-0.4,3.5
	c0,1.6-0.1,3.3,0.2,4.9c0.2,1.5-0.3,2.5-1.3,3.3c-1.2,1-2.8,0.5-3.4-0.9c-0.8-1.8-0.4-3.6,0-5.4c0.1-0.5,0.2-0.9,0.4-1.6
	c-2.3,0.1-4.1,0.8-5.8,2.1c-0.5,0.4-1.2,0.7-1.9,0.9c-1.8,0.4-3.1-0.9-2.6-2.7c0.6-2.1,1.3-4.1,2-6.1c0.2-0.6,0.3-1.2,0.5-1.8
	c0.4-1.1,0.6-2.2,2.3-2c1.6,0.2,2.3,1.1,1.8,2.7c-0.2,0.6-0.3,1.2-0.5,1.8C75.2,155.4,75,156,74.7,156.9"/>
<path d="M127.6,150c1-2,1-3.9,0.9-5.8c0-0.4-0.1-0.8,0-1.2c0.2-0.9,0.2-2.1,0.7-2.4c0.7-0.4,2-0.3,2.7,0.1c3.3,1.7,5.9,4.2,8.2,7.1
	c0.6,0.8,0.4,2.6-0.3,3c-1.3,0.8-2.9,0.4-3.7-0.6c-1-1.3-2.1-2.6-3.2-3.8c-0.1,0-0.3,0.1-0.4,0.1c-0.1,2.1-0.2,4.1-0.3,6.2
	c-0.1,0.8-0.1,1.6-0.4,2.3c-0.8,2-1.8,2.2-3.6,1.1c-2.1-1.2-3.9-2.8-4.8-5.1c-0.3-0.8,0.1-1.8,0.2-2.7c0.9,0.1,1.8,0,2.6,0.3
	C126.7,148.9,127,149.5,127.6,150"/>
<path d="M93.7,164.8c1.3-0.5,2.5-0.9,3.7-1.5c1.2-0.6,2.4-0.3,3.1,0.6c0.5,0.7,0.7,2,0.4,2.9c-0.2,0.6-1.4,1.1-2.3,1.2
	c-2.3,0.3-4.7,0.6-7,0.5c-1.9-0.1-3.7-0.9-4.8-2.7c-0.8-1.5-0.9-3,0-4.4c0.8-1.2,1.4-2.6,2.4-3.6c0.9-0.9,2.3-1.5,3.5-1.9
	c1.4-0.5,2.9-0.7,4.4-0.8c0.7,0,1.8,0.3,2,0.7c0.3,0.8,0.3,1.9,0,2.7c-0.2,0.4-1.3,0.7-2,0.6c-2.1-0.2-4.2-0.1-5.6,1.6
	c-0.5,0.7-0.9,1.9-0.7,2.7C91.2,164.6,92.5,164.7,93.7,164.8"/>
<path d="M59.8,146.7c-0.5-1.3-0.9-2.2-1.2-3.1c-0.4-1-0.1-1.8,0.8-2.3c1.1-0.6,2.4-0.4,2.9,0.6c0.5,0.9,0.7,2,1.1,2.9
	c0.3,0.8,0.2,2.2,1.9,1.4c0.8-0.4,1.9-0.2,2.8,0.1c0.7,0.2,1.5,0.8,1.7,1.5c0.3,0.9,0,1.9-1.2,2.3c-0.6,0.2-1.2,0.4-1.9,0.4
	c-1.3,0.1-1.5,0.9-1.3,2c0.1,0.9,0.3,1.7,0.3,2.6c-0.1,1.4-0.7,1.8-2.5,1.8c-1.4,0-2.1-0.7-2.2-1.9c0-0.9-0.1-1.7-0.1-2.6
	c0.1-1.2-0.4-1.6-1.6-1.5c-1.6,0.2-3.3,0.2-4.9,0.2c-1.1,0-1.4-0.5-1-1.6c0.8-2.1,0.8-2.1,3.1-2.3C57.5,147,58.5,146.8,59.8,146.7"
	/>
<path d="M110,157.4c-0.9,0.5-1.8,1-2.7,1.3c-0.8,0.2-1.8,0.4-2.4,0.1c-0.5-0.3-1-1.4-0.9-2.1c0.1-0.9,0.7-1.6,1.9-1.9
	c1.3-0.3,2.4-1,3.7-1.5c1.9-0.6,3.8-1.3,5.7-1.6c1.6-0.3,2.6,0.6,2.6,2.1c0,1.5-1.2,2.8-2.7,2.7c-0.3,0-0.5,0-1.1-0.1
	c0.5,1.2,1,2.2,1.4,3.2c0.3,0.7,0.6,1.4,0.9,2.1c0.5,1.3,0,2.3-1.3,2.9c-1,0.5-2.1-0.2-3-1c-1.6-1.5-1-3.5-1.8-5.1
	C110.2,158.1,110.1,157.8,110,157.4"/>
</svg>
